<?xml version="1.0" encoding="UTF-8" standalone="no"?>
<svg width="3167px" height="3167px" viewBox="0 0 3167 3167" version="1.1" xmlns="http://www.w3.org/2000/svg" xmlns:xlink="http://www.w3.org/1999/xlink" xmlns:sketch="http://www.bohemiancoding.com/sketch/ns">
    <!-- Generator: Sketch 3.3.3 (12081) - http://www.bohemiancoding.com/sketch -->
    <title>Redrawn Logo</title>
    <desc>Created with Sketch.</desc>
    <defs></defs>
    <g id="Page-1" stroke="none" stroke-width="1" fill="none" fill-rule="evenodd" sketch:type="MSPage">
        <g id="Book-Owl" sketch:type="MSLayerGroup" transform="translate(3.000000, 84.000000)">
            <g id="Inner-Elements" transform="translate(0.500000, 1493.000000)" sketch:type="MSShapeGroup">
                <g id="Wings" stroke="#FFFFFF" stroke-width="164.383562">
                    <path d="M1129.69253,503.292435 C851.452015,194.719587 448.48685,0.742691205 0.202154542,0.742691205" id="Oval-21-Copy"></path>
                    <path d="M3100.61444,62.6374357 C2652.95848,62.6374357 2311.88633,199.42306 2033.68684,507.24197" id="Oval-21"></path>
                    <path d="M1203.67111,750.505323 C950.261221,806.550355 718.227223,919.455324 521.646267,1075.14737 M2609.17406,1067.2869 C2415.88599,916.545638 2188.9629,806.898983 1941.54523,751.483387" id="Oval-24"></path>
                    <path d="M1133.83276,503.762336 C1042.85195,482.119466 947.921993,470.662068 850.315201,470.662068 C620.70707,470.662068 405.911694,534.063704 222.4912,644.309894" id="Oval-3-Copy-4"></path>
                    <path d="M2926.56194,649.301639 C2817.1781,582.37526 2696.43101,532.192415 2567.88812,502.319489 C2478.77793,481.610587 2385.92129,470.662068 2290.50672,470.662068 C2194.20038,470.662068 2145.65616,481.232992 2055.78392,502.319489" id="Oval-3-Copy-3"></path>
                </g>
                <g id="Body" transform="translate(1099.000000, 62.000000)" stroke="#FFFFFF" stroke-width="164.383562">
                    <path d="M0.309186051,1361.0479 C148.464885,1409.99533 306.843438,1436.48538 471.410959,1436.48538 C635.978479,1436.48538 794.357033,1409.99533 942.512732,1361.0479 C877.332012,1067.37892 706.262087,813.542175 471.410959,641.632841 C236.559839,813.542163 65.4899074,1067.37891 0.309186051,1361.0479 Z" id="Triangle-1-Copy-2"></path>
                    <path d="M771.43609,0.637435744 C866.416996,88.0672319 926.471472,223.99629 926.471472,398.663783 C926.471472,905.576782 570.868629,1438.48538 476.411624,1438.48538 C381.954619,1438.48538 26.3517755,905.576782 26.3517755,398.663783 C26.3517755,223.99629 86.406252,88.0672319 181.387158,0.637435744 C256.615545,76.6314244 361.013903,123.710956 476.411624,123.710956 C591.809345,123.710956 696.207703,76.6314244 771.43609,0.637435744 Z" id="Body-Shape"></path>
                </g>
                <g id="Stars-and-Face" transform="translate(1370.000000, 290.000000)" fill="#FFFFFF">
                    <ellipse id="Eye-2" cx="85.3956643" cy="85.678364" rx="85.0113047" ry="84.9854192"></ellipse>
                    <ellipse id="Eye-1" cx="315.426253" cy="85.678364" rx="85.0113047" ry="84.9854192"></ellipse>
                    <path d="M200.410959,146.006249 L238.750559,216.412703 L200.410959,286.819158 L162.071359,216.412703 L200.410959,146.006249 Z" id="Nose"></path>
                </g>
            </g>
            <g id="Outer-and-Inner-Rings" transform="translate(80.000000, 0.000000)" stroke="#FFFFFF" stroke-width="164.383562" sketch:type="MSShapeGroup">
                <path d="M1500,3000 C2328.42712,3000 3000,2328.42712 3000,1500.50017 C3000,671.572875 2328.42712,0 1500,0 C671.572875,0 0,671.572875 0,1500.50017 C0,2328.42712 671.572875,3000 1500,3000 L1500,3000 L1500,3000 Z" id="Path"></path>
                <path d="M1970.65698,1903.87378 C2291.38479,1734.6695 2510,1397.95189 2510,1010.33678 C2510,452.192403 2057.8076,0 1500,0 C942.192403,0 490,452.192403 490,1010.33678 C490,1417.84421 731.629556,1769.096 1079.51313,1928.58505" id="Path-Copy"></path>
            </g>
            <g id="Book" transform="translate(1180.000000, 512.000000)" sketch:type="MSShapeGroup">
                <path d="M0,685 C0,685 95.2915039,626.582941 200,626.582944 C304.708496,626.582947 400,704.84668 400,704.84668 C400,704.84668 488.455566,626.582941 600,626.582944 C711.544434,626.582947 800,685 800,685 L800,67.2196262 C800,67.2196262 729.15,-1.32071658e-14 600,0 C470.85,1.35427184e-14 400,67.2196262 400,67.2196262 C400,67.2196262 320.6,-1.26461621e-14 200,0 C79.4,1.26461621e-14 0,67.2196262 0,67.2196262 L0,685 Z" id="Rectangle-2" stroke="#FFFFFF" stroke-width="124"></path>
                <rect id="Rectangle-3" fill="#FFFFFF" x="337.6" y="90.4264019" width="124" height="548.96028"></rect>
            </g>
        </g>
    </g>
</svg>