<?xml version="1.0" encoding="UTF-8" standalone="no"?>
<svg width="512px" height="512px" viewBox="0 0 512 512" version="1.1" xmlns="http://www.w3.org/2000/svg" xmlns:xlink="http://www.w3.org/1999/xlink" xmlns:sketch="http://www.bohemiancoding.com/sketch/ns">
    <!-- Generator: Sketch 3.3.3 (12081) - http://www.bohemiancoding.com/sketch -->
    <title>Slice 1</title>
    <desc>Created with Sketch.</desc>
    <defs></defs>
    <g id="Page-1" stroke="none" stroke-width="1" fill="none" fill-rule="evenodd" sketch:type="MSPage">
        <g id="Owl-Copy" sketch:type="MSLayerGroup" transform="translate(6.000000, 14.000000)">
            <g id="Inner-Elements" transform="translate(0.000000, 60.000000)" sketch:type="MSShapeGroup">
                <g id="Wings" transform="translate(0.000000, 182.000000)" stroke="#FFFFFF" stroke-width="26.4963832">
                    <path d="M182,81 C137.165821,31.2648226 72.2341834,0 0,0" id="Oval-21-Copy"></path>
                    <path d="M500,10 C427.83313,10 372.848696,32.1512922 328,82" id="Oval-21"></path>
                    <path d="M194,121 C153.128926,129.977092 115.705451,148.061806 84,173 M420,172 C389.021975,147.656368 352.653307,129.949221 313,121" id="Oval-24"></path>
                    <path d="M183,81.3372825 C168.324735,77.8474585 153.01247,76 137.268429,76 C100.232485,76 65.5858477,86.2232539 36,104" id="Oval-3-Copy-4"></path>
                    <path d="M471,105 C453.413731,94.1353019 434.000524,85.9887166 413.333943,81.1392042 C399.007184,77.7773613 384.078088,76 368.737737,76 C353.254012,76 345.449278,77.7160633 331,81.139204" id="Oval-3-Copy-3"></path>
                </g>
                <g id="Body" transform="translate(177.000000, 192.000000)" stroke="#FFFFFF" stroke-width="26.4963832">
                    <path d="M-0.323234428,219.743741 C23.6704966,227.69513 49.3314793,232 76,232 C102.668521,232 128.329503,227.69513 152.323234,219.743741 L152.323234,219.743741 C141.775077,172.327213 114.052193,131.356937 76,103.660956 C37.9478087,131.356935 10.2249235,172.327212 -0.323234428,219.743741 Z" id="Triangle-1-Copy-2"></path>
                    <path d="M124.376817,0.375492016 C139.473823,14.4903282 149,36.2973881 149,64.2580645 C149,146.032253 91.7160494,232 76.5,232 C61.2839506,232 4,146.032253 4,64.2580645 C4,35.9765123 13.7460761,13.9906245 29.1451366,-0.107410666 C41.3056381,12.3010617 58.2537274,20 77,20 C95.501876,20 112.252149,12.5004965 124.376817,0.375492016 Z" id="Body-Shape"></path>
                </g>
                <g id="Stars-and-Face" transform="translate(145.000000, 0.000000)" fill="#FFFFFF">
                    <circle id="Eye-2" cx="89.5" cy="242.5" r="13.5"></circle>
                    <circle id="Eye-1" cx="126.5" cy="242.5" r="13.5"></circle>
                    <path d="M108,252 L114,263.5 L108,275 L102,263.5 L108,252 Z" id="Nose"></path>
                    <path d="M30.9463479,48 L45.8379799,67.3286463 L71,66.6050213 L56.3033739,86.0621943 L64.7984934,108.631677 L40.8206562,101.327149 L20.9161911,116 L20.8005107,92.0235166 L0,78.5267044 L23.8987375,71.0124871 L30.9463479,48" id="Star-3"></path>
                    <path d="M197.593582,103.268248 L194.5111,116.666217 L204,126.755674 L190.077475,128.017804 L183.236951,140 L177.71415,127.380352 L164,124.699494 L174.51387,115.638969 L172.875299,102 L184.893461,109.016629 L197.593582,103.268248" id="Star-2"></path>
                    <path d="M135.391834,25.2752077 L130.527456,38 L123.031663,26.5328402 L109,25.9929606 L117.976763,15.5615856 L114.167293,2.50665791 L127.212248,7.53130778 L138.887952,0 L137.975256,13.5330779 L149,21.9322933 L135.391834,25.2752077 Z" id="Star-1"></path>
                </g>
            </g>
            <g id="Outer-and-Inner-Rings" transform="translate(8.000000, 0.000000)" stroke="#FFFFFF" stroke-width="26.4963832" sketch:type="MSShapeGroup">
                <path d="M242,484 C375.652909,484 484,375.652909 484,242 C484,108.347091 375.652909,0 242,0 C108.347091,0 0,108.347091 0,242 C0,375.652909 108.347091,484 242,484 L242,484 L242,484 Z" id="Path"></path>
                <path d="M318,307 C369.718535,279.729542 405,225.431094 405,163 C405,72.9196969 332.022414,0 242,0 C151.977586,0 79,72.9196969 79,163 C79,228.638893 117.995661,285.281095 174,311" id="Path-Copy"></path>
            </g>
        </g>
    </g>
</svg>